<svg width="624" height="619" viewBox="0 0 624 619" fill="none" xmlns="http://www.w3.org/2000/svg">
<path d="M145.098 114.968C164.92 114.968 181.571 98.3177 181.571 78.4956C181.571 58.6735 164.92 42.0229 145.098 42.0229C125.276 42.0229 108.625 58.6735 108.625 78.4956C108.625 98.3177 125.276 114.968 145.098 114.968ZM125.276 372.656C125.276 378.206 130.033 382.963 135.583 382.963C141.134 382.963 145.891 378.206 145.891 372.656C145.891 367.106 141.134 362.348 135.583 362.348C130.033 362.348 125.276 367.106 125.276 372.656ZM198.221 160.956C206.943 160.956 213.286 153.82 213.286 145.891C213.286 137.169 206.15 130.826 198.221 130.826C189.5 130.826 183.156 137.962 183.156 145.891C183.156 153.82 189.5 160.956 198.221 160.956ZM78.4956 298.125C98.3178 298.125 114.968 281.474 114.968 261.652C114.968 241.83 98.3178 225.179 78.4956 225.179C58.6735 225.179 42.0229 241.83 42.0229 261.652C42.8158 281.474 58.6735 298.125 78.4956 298.125ZM26.1652 212.493C34.8869 212.493 41.23 205.357 41.23 197.428C41.23 188.707 34.0941 182.364 26.1652 182.364C17.4435 182.364 11.1004 189.5 11.1004 197.428C11.1004 206.15 17.4435 212.493 26.1652 212.493ZM20.615 245.794C20.615 240.244 15.8577 235.487 10.3075 235.487C4.75731 235.487 0 240.244 0 245.794C0 251.345 4.75731 256.102 10.3075 256.102C15.8577 256.102 20.615 251.345 20.615 245.794ZM68.981 160.163C83.2529 160.163 94.3533 149.062 94.3533 134.79C94.3533 120.519 83.2529 109.418 68.981 109.418C54.7091 109.418 43.6087 120.519 43.6087 134.79C43.6087 149.062 54.7091 160.163 68.981 160.163ZM377.413 20.615C382.963 20.615 387.721 15.8577 387.721 10.3075C387.721 4.75731 382.963 0 377.413 0C371.863 0 367.106 4.75731 367.106 10.3075C367.106 15.8577 371.863 20.615 377.413 20.615ZM99.9035 368.692C99.9035 344.112 80.0814 324.29 55.502 324.29C30.9225 324.29 11.1004 344.112 11.1004 368.692C11.1004 393.271 30.9225 413.093 55.502 413.093C80.0814 413.093 99.9035 393.271 99.9035 368.692ZM544.712 181.571C564.534 181.571 581.185 164.92 581.185 145.098C581.185 125.276 564.534 108.625 544.712 108.625C524.89 108.625 508.239 125.276 508.239 145.098C508.239 164.92 524.097 181.571 544.712 181.571ZM463.045 432.122C463.045 446.394 474.145 457.495 488.417 457.495C502.689 457.495 513.79 446.394 513.79 432.122C513.79 417.85 502.689 406.75 488.417 406.75C474.145 406.75 463.045 417.85 463.045 432.122ZM488.417 94.3533C502.689 94.3533 513.79 83.2529 513.79 68.981C513.79 54.7091 502.689 43.6087 488.417 43.6087C474.145 43.6087 463.045 54.7091 463.045 68.981C463.045 83.2529 474.145 94.3533 488.417 94.3533ZM432.122 160.163C446.394 160.163 457.495 149.062 457.495 134.79C457.495 120.519 446.394 109.418 432.122 109.418C417.85 109.418 406.75 120.519 406.75 134.79C406.75 149.062 417.85 160.163 432.122 160.163ZM523.304 249.759C523.304 274.338 543.126 294.16 567.706 294.16C592.285 294.16 612.107 274.338 612.107 249.759C612.107 225.179 592.285 205.357 567.706 205.357C543.126 205.357 523.304 225.179 523.304 249.759ZM497.932 245.794C497.932 240.244 493.174 235.487 487.624 235.487C482.074 235.487 477.317 240.244 477.317 245.794C477.317 251.345 482.074 256.102 487.624 256.102C493.174 256.102 497.932 251.345 497.932 245.794ZM424.986 40.4371C433.708 40.4371 440.051 33.3012 440.051 25.3723C440.051 17.4435 432.915 10.3075 424.986 10.3075C416.265 10.3075 409.922 17.4435 409.922 25.3723C409.922 33.3012 417.058 40.4371 424.986 40.4371ZM472.56 212.493C481.281 212.493 487.624 205.357 487.624 197.428C487.624 188.707 480.488 182.364 472.56 182.364C464.631 182.364 457.495 189.5 457.495 197.428C457.495 206.15 464.631 212.493 472.56 212.493ZM160.163 186.328C160.163 172.056 149.062 160.956 134.79 160.956C120.519 160.956 109.418 172.056 109.418 186.328C109.418 200.6 120.519 211.7 134.79 211.7C149.062 211.7 160.163 200.6 160.163 186.328ZM424.986 457.495C416.265 457.495 409.922 464.631 409.922 472.559C409.922 481.281 417.058 487.624 424.986 487.624C433.708 487.624 440.051 480.488 440.051 472.559C440.051 464.631 433.708 457.495 424.986 457.495ZM373.449 518.547C348.869 518.547 329.047 538.369 329.047 562.948C329.047 587.528 348.869 607.35 373.449 607.35C398.028 607.35 417.85 587.528 417.85 562.948C417.85 538.369 398.028 518.547 373.449 518.547ZM478.11 503.482C458.288 503.482 441.637 520.133 441.637 539.955C441.637 559.777 458.288 576.427 478.11 576.427C497.932 576.427 514.582 559.777 514.582 539.955C514.582 520.133 497.932 503.482 478.11 503.482ZM367.106 487.624C367.106 493.174 371.863 497.932 377.413 497.932C382.963 497.932 387.721 493.174 387.721 487.624C387.721 482.074 382.963 477.317 377.413 477.317C371.863 478.11 367.106 482.074 367.106 487.624ZM612.9 362.348C607.35 362.348 602.593 367.106 602.593 372.656C602.593 378.206 607.35 382.963 612.9 382.963C618.45 382.963 623.208 378.206 623.208 372.656C623.208 367.106 617.657 362.348 612.9 362.348ZM597.042 405.957C588.321 405.957 581.978 413.093 581.978 421.022C581.978 429.744 589.114 436.087 597.042 436.087C605.764 436.087 612.107 428.951 612.107 421.022C612.107 412.3 605.764 405.957 597.042 405.957ZM356.798 114.968C376.62 114.968 393.271 98.3177 393.271 78.4956C393.271 58.6735 376.62 42.0229 356.798 42.0229C336.976 42.0229 320.326 58.6735 320.326 78.4956C320.326 98.3177 336.976 114.968 356.798 114.968ZM544.712 320.326C524.89 320.326 508.239 336.976 508.239 356.798C508.239 376.62 524.89 393.271 544.712 393.271C564.534 393.271 581.185 376.62 581.185 356.798C580.392 336.976 564.534 320.326 544.712 320.326ZM78.4956 436.88C58.6735 436.88 42.0229 453.53 42.0229 473.352C42.0229 493.174 58.6735 509.825 78.4956 509.825C98.3178 509.825 114.968 493.174 114.968 473.352C114.968 453.53 99.1106 436.88 78.4956 436.88ZM554.227 458.288C539.955 458.288 528.854 469.388 528.854 483.66C528.854 497.932 539.955 509.032 554.227 509.032C568.499 509.032 579.599 497.932 579.599 483.66C579.599 469.388 568.499 458.288 554.227 458.288ZM150.648 405.957C141.926 405.957 135.583 413.093 135.583 421.022C135.583 429.744 142.719 436.087 150.648 436.087C158.577 436.087 165.713 428.951 165.713 421.022C165.713 412.3 158.577 405.957 150.648 405.957ZM191.085 458.288C176.813 458.288 165.713 469.388 165.713 483.66C165.713 497.932 176.813 509.032 191.085 509.032C205.357 509.032 216.458 497.932 216.458 483.66C216.458 469.388 205.357 458.288 191.085 458.288ZM198.221 578.013C189.5 578.013 183.156 585.149 183.156 593.078C183.156 601.007 190.292 608.143 198.221 608.143C206.943 608.143 213.286 601.007 213.286 593.078C213.286 585.149 206.15 578.013 198.221 578.013ZM134.79 524.097C120.519 524.097 109.418 535.197 109.418 549.469C109.418 563.741 120.519 574.842 134.79 574.842C149.062 574.842 160.163 563.741 160.163 549.469C160.163 535.197 149.062 524.097 134.79 524.097ZM236.28 130.826C236.28 136.376 241.037 141.134 246.587 141.134C252.137 141.134 256.895 136.376 256.895 130.826C256.895 125.276 252.137 120.519 246.587 120.519C240.244 120.519 236.28 125.276 236.28 130.826ZM294.16 54.7091C294.16 30.1296 274.338 10.3075 249.759 10.3075C225.179 10.3075 205.357 30.1296 205.357 54.7091C205.357 79.2885 225.179 99.1106 249.759 99.1106C274.338 99.9035 294.16 80.0814 294.16 54.7091ZM245.794 597.835C240.244 597.835 235.487 602.593 235.487 608.143C235.487 613.693 240.244 618.45 245.794 618.45C251.345 618.45 256.102 613.693 256.102 608.143C256.102 602.593 251.345 597.835 245.794 597.835ZM266.409 503.482C246.587 503.482 229.937 520.133 229.937 539.955C229.937 559.777 246.587 576.427 266.409 576.427C286.231 576.427 302.882 559.777 302.882 539.955C302.882 520.133 286.231 503.482 266.409 503.482Z" fill="#078DEE"/>
</svg>
