<svg width="1000" height="1000" viewBox="0 0 1000 1000" fill="none" xmlns="http://www.w3.org/2000/svg">
<rect width="1000" height="1000" rx="80" fill="#078DEE"/>
<g clip-path="url(#clip0_911_201)">
<path d="M333.098 305.968C352.92 305.968 369.571 289.318 369.571 269.496C369.571 249.673 352.92 233.023 333.098 233.023C313.276 233.023 296.625 249.673 296.625 269.496C296.625 289.318 313.276 305.968 333.098 305.968ZM313.276 563.656C313.276 569.206 318.033 573.963 323.583 573.963C329.134 573.963 333.891 569.206 333.891 563.656C333.891 558.106 329.134 553.348 323.583 553.348C318.033 553.348 313.276 558.106 313.276 563.656ZM386.221 351.956C394.943 351.956 401.286 344.82 401.286 336.891C401.286 328.169 394.15 321.826 386.221 321.826C377.5 321.826 371.156 328.962 371.156 336.891C371.156 344.82 377.5 351.956 386.221 351.956ZM266.496 489.125C286.318 489.125 302.968 472.474 302.968 452.652C302.968 432.83 286.318 416.179 266.496 416.179C246.673 416.179 230.023 432.83 230.023 452.652C230.816 472.474 246.673 489.125 266.496 489.125ZM214.165 403.493C222.887 403.493 229.23 396.357 229.23 388.428C229.23 379.707 222.094 373.364 214.165 373.364C205.443 373.364 199.1 380.5 199.1 388.428C199.1 397.15 205.443 403.493 214.165 403.493ZM208.615 436.794C208.615 431.244 203.858 426.487 198.308 426.487C192.757 426.487 188 431.244 188 436.794C188 442.345 192.757 447.102 198.308 447.102C203.858 447.102 208.615 442.345 208.615 436.794ZM256.981 351.163C271.253 351.163 282.353 340.062 282.353 325.79C282.353 311.519 271.253 300.418 256.981 300.418C242.709 300.418 231.609 311.519 231.609 325.79C231.609 340.062 242.709 351.163 256.981 351.163ZM565.413 211.615C570.963 211.615 575.721 206.858 575.721 201.308C575.721 195.757 570.963 191 565.413 191C559.863 191 555.106 195.757 555.106 201.308C555.106 206.858 559.863 211.615 565.413 211.615ZM287.904 559.692C287.904 535.112 268.081 515.29 243.502 515.29C218.923 515.29 199.1 535.112 199.1 559.692C199.1 584.271 218.923 604.093 243.502 604.093C268.081 604.093 287.904 584.271 287.904 559.692ZM732.712 372.571C752.534 372.571 769.185 355.92 769.185 336.098C769.185 316.276 752.534 299.625 732.712 299.625C712.89 299.625 696.239 316.276 696.239 336.098C696.239 355.92 712.097 372.571 732.712 372.571ZM651.045 623.122C651.045 637.394 662.145 648.495 676.417 648.495C690.689 648.495 701.79 637.394 701.79 623.122C701.79 608.85 690.689 597.75 676.417 597.75C662.145 597.75 651.045 608.85 651.045 623.122ZM676.417 285.353C690.689 285.353 701.79 274.253 701.79 259.981C701.79 245.709 690.689 234.609 676.417 234.609C662.145 234.609 651.045 245.709 651.045 259.981C651.045 274.253 662.145 285.353 676.417 285.353ZM620.122 351.163C634.394 351.163 645.495 340.062 645.495 325.79C645.495 311.519 634.394 300.418 620.122 300.418C605.85 300.418 594.75 311.519 594.75 325.79C594.75 340.062 605.85 351.163 620.122 351.163ZM711.304 440.759C711.304 465.338 731.126 485.16 755.706 485.16C780.285 485.16 800.107 465.338 800.107 440.759C800.107 416.179 780.285 396.357 755.706 396.357C731.126 396.357 711.304 416.179 711.304 440.759ZM685.932 436.794C685.932 431.244 681.174 426.487 675.624 426.487C670.074 426.487 665.317 431.244 665.317 436.794C665.317 442.345 670.074 447.102 675.624 447.102C681.174 447.102 685.932 442.345 685.932 436.794ZM612.986 231.437C621.708 231.437 628.051 224.301 628.051 216.372C628.051 208.443 620.915 201.308 612.986 201.308C604.265 201.308 597.922 208.443 597.922 216.372C597.922 224.301 605.058 231.437 612.986 231.437ZM660.56 403.493C669.281 403.493 675.624 396.357 675.624 388.428C675.624 379.707 668.488 373.364 660.56 373.364C652.631 373.364 645.495 380.5 645.495 388.428C645.495 397.15 652.631 403.493 660.56 403.493ZM348.163 377.328C348.163 363.056 337.062 351.956 322.79 351.956C308.519 351.956 297.418 363.056 297.418 377.328C297.418 391.6 308.519 402.7 322.79 402.7C337.062 402.7 348.163 391.6 348.163 377.328ZM612.986 648.495C604.265 648.495 597.922 655.631 597.922 663.559C597.922 672.281 605.058 678.624 612.986 678.624C621.708 678.624 628.051 671.488 628.051 663.559C628.051 655.631 621.708 648.495 612.986 648.495ZM561.449 709.547C536.869 709.547 517.047 729.369 517.047 753.948C517.047 778.528 536.869 798.35 561.449 798.35C586.028 798.35 605.85 778.528 605.85 753.948C605.85 729.369 586.028 709.547 561.449 709.547ZM666.11 694.482C646.288 694.482 629.637 711.133 629.637 730.955C629.637 750.777 646.288 767.427 666.11 767.427C685.932 767.427 702.582 750.777 702.582 730.955C702.582 711.133 685.932 694.482 666.11 694.482ZM555.106 678.624C555.106 684.174 559.863 688.932 565.413 688.932C570.963 688.932 575.721 684.174 575.721 678.624C575.721 673.074 570.963 668.317 565.413 668.317C559.863 669.11 555.106 673.074 555.106 678.624ZM800.9 553.348C795.35 553.348 790.593 558.106 790.593 563.656C790.593 569.206 795.35 573.963 800.9 573.963C806.45 573.963 811.208 569.206 811.208 563.656C811.208 558.106 805.657 553.348 800.9 553.348ZM785.042 596.957C776.321 596.957 769.978 604.093 769.978 612.022C769.978 620.744 777.114 627.087 785.042 627.087C793.764 627.087 800.107 619.951 800.107 612.022C800.107 603.3 793.764 596.957 785.042 596.957ZM544.798 305.968C564.62 305.968 581.271 289.318 581.271 269.496C581.271 249.673 564.62 233.023 544.798 233.023C524.976 233.023 508.326 249.673 508.326 269.496C508.326 289.318 524.976 305.968 544.798 305.968ZM732.712 511.326C712.89 511.326 696.239 527.976 696.239 547.798C696.239 567.62 712.89 584.271 732.712 584.271C752.534 584.271 769.185 567.62 769.185 547.798C768.392 527.976 752.534 511.326 732.712 511.326ZM266.496 627.88C246.673 627.88 230.023 644.53 230.023 664.352C230.023 684.174 246.673 700.825 266.496 700.825C286.318 700.825 302.968 684.174 302.968 664.352C302.968 644.53 287.111 627.88 266.496 627.88ZM742.227 649.288C727.955 649.288 716.854 660.388 716.854 674.66C716.854 688.932 727.955 700.032 742.227 700.032C756.499 700.032 767.599 688.932 767.599 674.66C767.599 660.388 756.499 649.288 742.227 649.288ZM338.648 596.957C329.926 596.957 323.583 604.093 323.583 612.022C323.583 620.744 330.719 627.087 338.648 627.087C346.577 627.087 353.713 619.951 353.713 612.022C353.713 603.3 346.577 596.957 338.648 596.957ZM379.085 649.288C364.813 649.288 353.713 660.388 353.713 674.66C353.713 688.932 364.813 700.032 379.085 700.032C393.357 700.032 404.458 688.932 404.458 674.66C404.458 660.388 393.357 649.288 379.085 649.288ZM386.221 769.013C377.5 769.013 371.156 776.149 371.156 784.078C371.156 792.007 378.292 799.143 386.221 799.143C394.943 799.143 401.286 792.007 401.286 784.078C401.286 776.149 394.15 769.013 386.221 769.013ZM322.79 715.097C308.519 715.097 297.418 726.197 297.418 740.469C297.418 754.741 308.519 765.842 322.79 765.842C337.062 765.842 348.163 754.741 348.163 740.469C348.163 726.197 337.062 715.097 322.79 715.097ZM424.28 321.826C424.28 327.376 429.037 332.134 434.587 332.134C440.137 332.134 444.895 327.376 444.895 321.826C444.895 316.276 440.137 311.519 434.587 311.519C428.244 311.519 424.28 316.276 424.28 321.826ZM482.16 245.709C482.16 221.13 462.338 201.308 437.759 201.308C413.179 201.308 393.357 221.13 393.357 245.709C393.357 270.288 413.179 290.111 437.759 290.111C462.338 290.904 482.16 271.081 482.16 245.709ZM433.794 788.835C428.244 788.835 423.487 793.593 423.487 799.143C423.487 804.693 428.244 809.45 433.794 809.45C439.345 809.45 444.102 804.693 444.102 799.143C444.102 793.593 439.345 788.835 433.794 788.835ZM454.409 694.482C434.587 694.482 417.937 711.133 417.937 730.955C417.937 750.777 434.587 767.427 454.409 767.427C474.231 767.427 490.882 750.777 490.882 730.955C490.882 711.133 474.231 694.482 454.409 694.482Z" fill="#EEEEEE"/>
</g>
<defs>
<clipPath id="clip0_911_201">
<rect width="623.208" height="618.45" fill="white" transform="translate(188 191)"/>
</clipPath>
</defs>
</svg>
