<svg width="1291" height="347" viewBox="0 0 1291 347" fill="none" xmlns="http://www.w3.org/2000/svg">
<g clip-path="url(#clip0_909_175)">
<path d="M81.2262 64.3595C92.3227 64.3595 101.644 55.0385 101.644 43.942C101.644 32.8456 92.3227 23.5245 81.2262 23.5245C70.1297 23.5245 60.8087 32.8456 60.8087 43.942C60.8087 55.0385 70.1297 64.3595 81.2262 64.3595ZM70.1297 208.614C70.1297 211.721 72.7929 214.384 75.8999 214.384C79.0069 214.384 81.6701 211.721 81.6701 208.614C81.6701 205.507 79.0069 202.844 75.8999 202.844C72.7929 202.844 70.1297 205.507 70.1297 208.614ZM110.965 90.1034C115.847 90.1034 119.398 86.1086 119.398 81.67C119.398 76.7876 115.403 73.2367 110.965 73.2367C106.082 73.2367 102.531 77.2315 102.531 81.67C102.531 86.1086 106.082 90.1034 110.965 90.1034ZM43.942 166.891C55.0385 166.891 64.3596 157.57 64.3596 146.473C64.3596 135.377 55.0385 126.056 43.942 126.056C32.8456 126.056 23.5245 135.377 23.5245 146.473C23.9684 157.57 32.8456 166.891 43.942 166.891ZM14.6473 118.954C19.5298 118.954 23.0807 114.959 23.0807 110.521C23.0807 105.638 19.0859 102.088 14.6473 102.088C9.7649 102.088 6.21403 106.082 6.21403 110.521C6.21403 115.403 9.7649 118.954 14.6473 118.954ZM11.5403 137.596C11.5403 134.489 8.87718 131.826 5.77017 131.826C2.66315 131.826 0 134.489 0 137.596C0 140.703 2.66315 143.366 5.77017 143.366C8.87718 143.366 11.5403 140.703 11.5403 137.596ZM38.6157 89.6595C46.6052 89.6595 52.8192 83.4455 52.8192 75.456C52.8192 67.4666 46.6052 61.2525 38.6157 61.2525C30.6263 61.2525 24.4122 67.4666 24.4122 75.456C24.4122 83.4455 30.6263 89.6595 38.6157 89.6595ZM211.277 11.5403C214.384 11.5403 217.047 8.87718 217.047 5.77017C217.047 2.66315 214.384 0 211.277 0C208.17 0 205.507 2.66315 205.507 5.77017C205.507 8.87718 208.17 11.5403 211.277 11.5403ZM55.9262 206.394C55.9262 192.635 44.8298 181.538 31.0701 181.538C17.3105 181.538 6.21403 192.635 6.21403 206.394C6.21403 220.154 17.3105 231.251 31.0701 231.251C44.8298 231.251 55.9262 220.154 55.9262 206.394ZM304.931 101.644C316.028 101.644 325.349 92.3227 325.349 81.2262C325.349 70.1297 316.028 60.8087 304.931 60.8087C293.835 60.8087 284.514 70.1297 284.514 81.2262C284.514 92.3227 293.391 101.644 304.931 101.644ZM259.214 241.903C259.214 249.893 265.428 256.107 273.417 256.107C281.407 256.107 287.621 249.893 287.621 241.903C287.621 233.914 281.407 227.7 273.417 227.7C265.428 227.7 259.214 233.914 259.214 241.903ZM273.417 52.8192C281.407 52.8192 287.621 46.6052 287.621 38.6157C287.621 30.6263 281.407 24.4122 273.417 24.4122C265.428 24.4122 259.214 30.6263 259.214 38.6157C259.214 46.6052 265.428 52.8192 273.417 52.8192ZM241.903 89.6595C249.893 89.6595 256.107 83.4455 256.107 75.456C256.107 67.4666 249.893 61.2525 241.903 61.2525C233.914 61.2525 227.7 67.4666 227.7 75.456C227.7 83.4455 233.914 89.6595 241.903 89.6595ZM292.947 139.816C292.947 153.575 304.043 164.672 317.803 164.672C331.563 164.672 342.659 153.575 342.659 139.816C342.659 126.056 331.563 114.959 317.803 114.959C304.043 114.959 292.947 126.056 292.947 139.816ZM278.743 137.596C278.743 134.489 276.08 131.826 272.973 131.826C269.866 131.826 267.203 134.489 267.203 137.596C267.203 140.703 269.866 143.366 272.973 143.366C276.08 143.366 278.743 140.703 278.743 137.596ZM237.908 22.6368C242.791 22.6368 246.342 18.6421 246.342 14.2035C246.342 9.7649 242.347 5.77017 237.908 5.77017C233.026 5.77017 229.475 9.7649 229.475 14.2035C229.475 18.6421 233.47 22.6368 237.908 22.6368ZM264.54 118.954C269.422 118.954 272.973 114.959 272.973 110.521C272.973 105.638 268.979 102.088 264.54 102.088C260.101 102.088 256.107 106.082 256.107 110.521C256.107 115.403 260.101 118.954 264.54 118.954ZM89.6595 104.307C89.6595 96.3174 83.4455 90.1034 75.456 90.1034C67.4666 90.1034 61.2525 96.3174 61.2525 104.307C61.2525 112.296 67.4666 118.51 75.456 118.51C83.4455 118.51 89.6595 112.296 89.6595 104.307ZM237.908 256.107C233.026 256.107 229.475 260.101 229.475 264.54C229.475 269.422 233.47 272.973 237.908 272.973C242.791 272.973 246.342 268.979 246.342 264.54C246.342 260.101 242.791 256.107 237.908 256.107ZM209.058 290.284C195.298 290.284 184.201 301.38 184.201 315.14C184.201 328.899 195.298 339.996 209.058 339.996C222.817 339.996 233.914 328.899 233.914 315.14C233.914 301.38 222.817 290.284 209.058 290.284ZM267.647 281.85C256.551 281.85 247.229 291.171 247.229 302.268C247.229 313.364 256.551 322.685 267.647 322.685C278.743 322.685 288.065 313.364 288.065 302.268C288.065 291.171 278.743 281.85 267.647 281.85ZM205.507 272.973C205.507 276.08 208.17 278.743 211.277 278.743C214.384 278.743 217.047 276.08 217.047 272.973C217.047 269.866 214.384 267.203 211.277 267.203C208.17 267.647 205.507 269.866 205.507 272.973ZM343.103 202.844C339.996 202.844 337.333 205.507 337.333 208.614C337.333 211.721 339.996 214.384 343.103 214.384C346.21 214.384 348.873 211.721 348.873 208.614C348.873 205.507 345.766 202.844 343.103 202.844ZM334.226 227.256C329.343 227.256 325.793 231.251 325.793 235.689C325.793 240.572 329.787 244.122 334.226 244.122C339.108 244.122 342.659 240.128 342.659 235.689C342.659 230.807 339.108 227.256 334.226 227.256ZM199.737 64.3595C210.833 64.3595 220.154 55.0385 220.154 43.942C220.154 32.8456 210.833 23.5245 199.737 23.5245C188.64 23.5245 179.319 32.8456 179.319 43.942C179.319 55.0385 188.64 64.3595 199.737 64.3595ZM304.931 179.319C293.835 179.319 284.514 188.64 284.514 199.737C284.514 210.833 293.835 220.154 304.931 220.154C316.028 220.154 325.349 210.833 325.349 199.737C324.905 188.64 316.028 179.319 304.931 179.319ZM43.942 244.566C32.8456 244.566 23.5245 253.887 23.5245 264.984C23.5245 276.08 32.8456 285.401 43.942 285.401C55.0385 285.401 64.3596 276.08 64.3596 264.984C64.3596 253.887 55.4824 244.566 43.942 244.566ZM310.257 256.55C302.268 256.55 296.054 262.765 296.054 270.754C296.054 278.743 302.268 284.957 310.257 284.957C318.247 284.957 324.461 278.743 324.461 270.754C324.461 262.765 318.247 256.55 310.257 256.55ZM84.3332 227.256C79.4508 227.256 75.8999 231.251 75.8999 235.689C75.8999 240.572 79.8946 244.122 84.3332 244.122C88.7718 244.122 92.7665 240.128 92.7665 235.689C92.7665 230.807 88.7718 227.256 84.3332 227.256ZM106.97 256.55C98.9806 256.55 92.7665 262.765 92.7665 270.754C92.7665 278.743 98.9806 284.957 106.97 284.957C114.959 284.957 121.174 278.743 121.174 270.754C121.174 262.765 114.959 256.55 106.97 256.55ZM110.965 323.573C106.082 323.573 102.531 327.568 102.531 332.007C102.531 336.445 106.526 340.44 110.965 340.44C115.847 340.44 119.398 336.445 119.398 332.007C119.398 327.568 115.403 323.573 110.965 323.573ZM75.456 293.391C67.4666 293.391 61.2525 299.605 61.2525 307.594C61.2525 315.584 67.4666 321.798 75.456 321.798C83.4455 321.798 89.6595 315.584 89.6595 307.594C89.6595 299.605 83.4455 293.391 75.456 293.391ZM132.27 73.2367C132.27 76.3437 134.933 79.0069 138.04 79.0069C141.147 79.0069 143.81 76.3437 143.81 73.2367C143.81 70.1297 141.147 67.4666 138.04 67.4666C134.489 67.4666 132.27 70.1297 132.27 73.2367ZM164.672 30.6263C164.672 16.8666 153.575 5.77017 139.816 5.77017C126.056 5.77017 114.959 16.8666 114.959 30.6263C114.959 44.3859 126.056 55.4824 139.816 55.4824C153.575 55.9262 164.672 44.8298 164.672 30.6263ZM137.596 334.67C134.489 334.67 131.826 337.333 131.826 340.44C131.826 343.547 134.489 346.21 137.596 346.21C140.703 346.21 143.366 343.547 143.366 340.44C143.366 337.333 140.703 334.67 137.596 334.67ZM149.137 281.85C138.04 281.85 128.719 291.171 128.719 302.268C128.719 313.364 138.04 322.685 149.137 322.685C160.233 322.685 169.554 313.364 169.554 302.268C169.554 291.171 160.233 281.85 149.137 281.85Z" fill="#078DEE"/>
<path d="M530.32 23.4888L599.34 208.059H557.204L543.245 166.957H474.225L459.749 208.059H418.647L488.701 23.4888H530.32ZM508.864 68.985L484.824 136.712H532.646L509.381 68.985H508.864ZM649.23 23.4888V208.059H612.523V23.4888H649.23ZM715.924 23.4888V208.059H679.217V23.4888H715.924ZM768.658 74.4135L798.903 165.923H799.42L828.63 74.4135H866.63L810.794 224.861C806.83 235.374 801.358 243.043 794.379 247.868C787.399 252.693 777.706 255.106 765.297 255.106C759.955 255.106 752.286 254.675 742.291 253.813V223.569C748.839 224.43 755.303 224.861 761.678 224.861C766.848 224.861 770.855 223.267 773.699 220.079C776.542 216.891 777.964 212.884 777.964 208.059C777.964 205.301 777.447 202.544 776.413 199.786L729.366 74.4132L768.658 74.4135ZM936.684 23.4888C953.745 23.4888 968.136 28.314 979.853 37.9648C991.571 47.6157 997.432 59.507 997.432 73.638C997.432 82.5995 995.277 90.3979 990.969 97.0323C986.661 103.667 980.37 108.191 972.098 110.604V111.121C982.266 113.361 990.151 118.229 995.751 125.726C1001.35 133.223 1004.15 142.054 1004.15 152.222C1004.15 169.8 997.776 184.103 985.023 195.134C972.271 206.164 956.245 211.678 936.942 211.678C916.262 211.678 899.891 205.861 887.827 194.229C875.763 182.596 869.732 167.13 869.732 147.828V145.76H904.63C905.147 157.134 908.205 165.923 913.806 172.127C919.407 178.331 926.947 181.433 936.425 181.433C945.042 181.433 952.107 178.805 957.622 173.549C963.137 168.293 965.894 161.442 965.894 152.998C965.894 142.485 962.706 135.377 956.33 131.672C949.953 127.966 941.078 126.114 929.704 126.114H924.017V100.264H930.738C941.078 100.264 948.963 98.3248 954.391 94.4473C959.82 90.5698 962.534 85.012 962.534 77.774C962.534 70.019 959.992 64.0734 954.908 59.9374C949.824 55.8014 943.835 53.7334 936.942 53.7334C928.153 53.7334 921.303 56.5769 916.391 62.2639C911.48 67.951 909.024 75.8779 909.024 86.0461H874.126C874.816 66.917 880.805 51.7093 892.092 40.4206C903.38 29.1319 918.245 23.4888 936.684 23.4888ZM1085.32 23.4888C1101.35 23.4888 1114.62 27.8833 1125.13 36.6723C1135.64 45.4614 1141.93 57.7828 1144 73.638H1109.1C1107.73 66.7445 1104.8 61.2728 1100.32 57.2232C1095.83 53.1735 1090.66 51.1484 1084.81 51.1484C1074.81 51.1484 1066.71 56.146 1060.51 66.1415C1054.3 76.1369 1050.86 89.4932 1050.17 106.209L1050.68 106.726C1059.99 93.2841 1073.52 86.5631 1091.27 86.5631C1106.78 86.5631 1119.96 91.9916 1130.82 102.849C1141.68 113.706 1147.1 127.923 1147.1 145.501C1147.1 164.285 1141.24 180.011 1129.53 192.678C1117.81 205.344 1102.56 211.678 1083.77 211.678C1061.37 211.678 1044.18 203.707 1032.2 187.766C1020.22 171.825 1014.23 148.603 1014.23 118.1C1014.23 91.2161 1020.35 68.7265 1032.59 50.6314C1044.82 32.5363 1062.4 23.4888 1085.32 23.4888ZM1053.53 147.828C1053.53 157.134 1056.2 165.062 1061.54 171.61C1066.88 178.158 1073.95 181.433 1082.74 181.433C1090.84 181.433 1097.47 178.159 1102.64 171.61C1107.81 165.061 1110.4 157.306 1110.4 148.345C1110.4 138.349 1107.85 130.163 1102.77 123.787C1097.69 117.411 1090.92 114.223 1082.48 114.223C1073.69 114.223 1066.67 117.325 1061.41 123.529C1056.15 129.733 1053.53 137.833 1053.53 147.828ZM1224.14 23.4888C1245.85 23.4888 1262.4 31.3299 1273.77 47.0124C1285.14 62.6949 1290.83 85.9607 1290.83 116.808C1290.83 148.172 1285.19 171.824 1273.9 187.766C1262.61 203.708 1246.02 211.678 1224.14 211.678C1180.02 211.678 1157.96 180.055 1157.96 116.808C1157.96 86.1313 1163.52 62.9102 1174.63 47.1416C1185.75 31.3731 1202.25 23.4888 1224.14 23.4888ZM1194.67 115.774C1194.67 140.245 1197.21 157.307 1202.29 166.957C1207.38 176.607 1214.66 181.433 1224.14 181.433C1231.72 181.433 1237.62 178.848 1241.84 173.678C1246.07 168.508 1249.17 161.744 1251.15 153.386C1253.13 145.027 1254.12 132.49 1254.12 115.774C1254.12 93.3707 1251.49 77.4302 1246.24 67.951C1240.98 58.4717 1233.53 53.7334 1223.88 53.7334C1214.4 53.7334 1207.16 58.5588 1202.16 68.2095C1197.17 77.8601 1194.67 93.7145 1194.67 115.774Z" fill="#078DEE"/>
<path d="M435.194 306.675V302.648H450.48V321.281H447.423L446.307 316.768C443.929 320.068 439.562 322.203 434.806 322.203C428.838 322.203 425.926 320.02 424.131 318.273C418.793 313.226 418.647 307.258 418.647 303.57C418.647 295.078 423.791 285.519 435.146 285.519C441.648 285.519 448.878 289.206 449.897 297.019H445.336C443.832 290.953 438.737 289.692 434.903 289.692C428.644 289.692 423.5 294.69 423.5 303.812C423.5 310.897 425.829 318.176 435.097 318.176C436.844 318.176 439.659 317.982 442.23 315.944C445.288 313.517 446.064 310.412 446.064 306.675H435.194ZM492.046 317.108V321.281H466.328V286.441H491.706V290.614H471.035V301.289H490.105V305.462H471.035V317.108H492.046ZM531.72 296.631H527.304C527.061 291.244 522.597 289.546 518.667 289.546C515.707 289.546 510.709 290.371 510.709 295.66C510.709 298.62 512.795 299.591 514.833 300.076L524.781 302.357C529.293 303.424 532.69 306.142 532.69 311.673C532.69 319.923 525.023 322.203 519.055 322.203C512.601 322.203 510.078 320.262 508.525 318.855C505.565 316.186 504.983 313.275 504.983 310.024H509.398C509.398 316.332 514.542 318.176 519.006 318.176C522.403 318.176 528.129 317.302 528.129 312.304C528.129 308.665 526.431 307.5 520.705 306.142L513.571 304.492C511.291 303.958 506.147 302.357 506.147 296.291C506.147 290.856 509.69 285.519 518.133 285.519C530.313 285.519 531.526 292.797 531.72 296.631ZM543.734 290.614V286.441H572.024V290.614H560.233V321.281H555.526V290.614H543.734ZM611.795 303.861C611.795 295.66 607.234 289.692 599.664 289.692C592.094 289.692 587.533 295.66 587.533 303.861C587.533 312.062 592.094 318.03 599.664 318.03C607.234 318.03 611.795 312.062 611.795 303.861ZM616.648 303.861C616.648 311.382 612.669 322.203 599.664 322.203C586.659 322.203 582.68 311.382 582.68 303.861C582.68 296.34 586.659 285.519 599.664 285.519C612.669 285.519 616.648 296.34 616.648 303.861ZM635.601 306.336V321.281H630.895V286.441H647.005C652.731 286.441 658.457 288.43 658.457 295.806C658.457 300.949 655.836 302.842 653.604 304.152C655.594 304.977 657.583 305.85 657.777 310.703L658.068 317.011C658.117 318.952 658.359 319.68 659.815 320.505V321.281H654.041C653.361 319.146 653.216 313.857 653.216 312.547C653.216 309.684 652.634 306.336 647.005 306.336H635.601ZM635.601 290.468V302.308H646.519C649.965 302.308 653.604 301.435 653.604 296.291C653.604 290.905 649.674 290.468 647.344 290.468H635.601ZM721.209 317.108V321.281H695.491V286.441H720.869V290.614H700.197V301.289H719.268V305.462H700.197V317.108H721.209ZM768.695 321.281H764.134V300.707C764.134 299.688 764.231 295.272 764.231 292.021H764.134L754.332 321.281H749.673L739.871 292.069H739.774C739.774 295.272 739.871 299.688 739.871 300.707V321.281H735.31V286.441H742.055L752.002 315.895H752.099L761.999 286.441H768.695V321.281ZM789.153 290.468V302.551H798.518C802.74 302.551 805.603 300.998 805.603 296.291C805.603 291.875 802.594 290.468 798.712 290.468H789.153ZM789.153 306.578V321.281H784.446V286.441H800.12C806.573 286.441 810.455 290.614 810.455 296.243C810.455 301.095 807.689 306.578 800.12 306.578H789.153ZM829.7 306.336V321.281H824.993V286.441H841.103C846.829 286.441 852.555 288.43 852.555 295.806C852.555 300.949 849.935 302.842 847.703 304.152C849.692 304.977 851.682 305.85 851.876 310.703L852.167 317.011C852.216 318.952 852.458 319.68 853.914 320.505V321.281H848.14C847.46 319.146 847.315 313.857 847.315 312.547C847.315 309.684 846.732 306.336 841.103 306.336H829.7ZM829.7 290.468V302.308H840.618C844.063 302.308 847.703 301.435 847.703 296.291C847.703 290.905 843.772 290.468 841.443 290.468H829.7ZM893.733 317.108V321.281H868.015V286.441H893.394V290.614H872.722V301.289H891.792V305.462H872.722V317.108H893.733ZM933.407 296.631H928.991C928.749 291.244 924.285 289.546 920.354 289.546C917.394 289.546 912.396 290.371 912.396 295.66C912.396 298.62 914.483 299.591 916.521 300.076L926.468 302.357C930.981 303.424 934.378 306.142 934.378 311.673C934.378 319.923 926.711 322.203 920.742 322.203C914.288 322.203 911.765 320.262 910.212 318.855C907.252 316.186 906.67 313.275 906.67 310.024H911.086C911.086 316.332 916.229 318.176 920.694 318.176C924.09 318.176 929.816 317.302 929.816 312.304C929.816 308.665 928.118 307.5 922.392 306.142L915.259 304.492C912.978 303.958 907.835 302.357 907.835 296.291C907.835 290.856 911.377 285.519 919.82 285.519C932 285.519 933.213 292.797 933.407 296.631ZM967.889 311.14H953.914L950.274 321.281H945.422L958.524 286.441H963.861L976.478 321.281H971.334L967.889 311.14ZM955.369 306.966H966.19L961.047 291.633H960.95L955.369 306.966ZM994.17 306.336V321.281H989.463V286.441H1005.57C1011.3 286.441 1017.02 288.43 1017.02 295.806C1017.02 300.949 1014.4 302.842 1012.17 304.152C1014.16 304.977 1016.15 305.85 1016.35 310.703L1016.64 317.011C1016.69 318.952 1016.93 319.68 1018.38 320.505V321.281H1012.61C1011.93 319.146 1011.78 313.857 1011.78 312.547C1011.78 309.684 1011.2 306.336 1005.57 306.336H994.17ZM994.17 290.468V302.308H1005.09C1008.53 302.308 1012.17 301.435 1012.17 296.291C1012.17 290.905 1008.24 290.468 1005.91 290.468H994.17ZM1037.43 286.441V321.281H1032.73V286.441H1037.43ZM1073.03 311.14H1059.06L1055.42 321.281H1050.57L1063.67 286.441H1069L1081.62 321.281H1076.48L1073.03 311.14ZM1060.51 306.966H1071.33L1066.19 291.633H1066.09L1060.51 306.966ZM1098.73 286.441V317.108H1116.39V321.281H1094.02V286.441H1098.73Z" fill="#078DEE"/>
</g>
<defs>
<clipPath id="clip0_909_175">
<rect width="1290.83" height="346.21" fill="white"/>
</clipPath>
</defs>
</svg>
