<svg width="1371" height="503" viewBox="0 0 1371 503" fill="none" xmlns="http://www.w3.org/2000/svg">
<path d="M122.226 143.36C133.323 143.36 142.644 134.039 142.644 122.942C142.644 111.846 133.323 102.525 122.226 102.525C111.13 102.525 101.809 111.846 101.809 122.942C101.809 134.039 111.13 143.36 122.226 143.36ZM111.13 287.614C111.13 290.721 113.793 293.384 116.9 293.384C120.007 293.384 122.67 290.721 122.67 287.614C122.67 284.507 120.007 281.844 116.9 281.844C113.793 281.844 111.13 284.507 111.13 287.614ZM151.965 169.103C156.847 169.103 160.398 165.109 160.398 160.67C160.398 155.788 156.403 152.237 151.965 152.237C147.082 152.237 143.531 156.231 143.531 160.67C143.531 165.109 147.082 169.103 151.965 169.103ZM84.942 245.891C96.0385 245.891 105.36 236.57 105.36 225.473C105.36 214.377 96.0385 205.056 84.942 205.056C73.8456 205.056 64.5245 214.377 64.5245 225.473C64.9684 236.57 73.8456 245.891 84.942 245.891ZM55.6473 197.954C60.5298 197.954 64.0807 193.959 64.0807 189.521C64.0807 184.638 60.0859 181.088 55.6473 181.088C50.7649 181.088 47.214 185.082 47.214 189.521C47.214 194.403 50.7649 197.954 55.6473 197.954ZM52.5403 216.596C52.5403 213.489 49.8772 210.826 46.7702 210.826C43.6632 210.826 41 213.489 41 216.596C41 219.703 43.6632 222.366 46.7702 222.366C49.8772 222.366 52.5403 219.703 52.5403 216.596ZM79.6157 168.66C87.6052 168.66 93.8192 162.445 93.8192 154.456C93.8192 146.467 87.6052 140.253 79.6157 140.253C71.6263 140.253 65.4122 146.467 65.4122 154.456C65.4122 162.445 71.6263 168.66 79.6157 168.66ZM252.277 90.5403C255.384 90.5403 258.047 87.8772 258.047 84.7702C258.047 81.6632 255.384 79 252.277 79C249.17 79 246.507 81.6632 246.507 84.7702C246.507 87.8772 249.17 90.5403 252.277 90.5403ZM96.9262 285.394C96.9262 271.635 85.8298 260.538 72.0701 260.538C58.3105 260.538 47.214 271.635 47.214 285.394C47.214 299.154 58.3105 310.251 72.0701 310.251C85.8298 310.251 96.9262 299.154 96.9262 285.394ZM345.931 180.644C357.028 180.644 366.349 171.323 366.349 160.226C366.349 149.13 357.028 139.809 345.931 139.809C334.835 139.809 325.514 149.13 325.514 160.226C325.514 171.323 334.391 180.644 345.931 180.644ZM300.214 320.903C300.214 328.893 306.428 335.107 314.417 335.107C322.407 335.107 328.621 328.893 328.621 320.903C328.621 312.914 322.407 306.7 314.417 306.7C306.428 306.7 300.214 312.914 300.214 320.903ZM314.417 131.819C322.407 131.819 328.621 125.605 328.621 117.616C328.621 109.626 322.407 103.412 314.417 103.412C306.428 103.412 300.214 109.626 300.214 117.616C300.214 125.605 306.428 131.819 314.417 131.819ZM282.903 168.66C290.893 168.66 297.107 162.445 297.107 154.456C297.107 146.467 290.893 140.253 282.903 140.253C274.914 140.253 268.7 146.467 268.7 154.456C268.7 162.445 274.914 168.66 282.903 168.66ZM333.947 218.816C333.947 232.575 345.043 243.672 358.803 243.672C372.563 243.672 383.659 232.575 383.659 218.816C383.659 205.056 372.563 193.959 358.803 193.959C345.043 193.959 333.947 205.056 333.947 218.816ZM319.743 216.596C319.743 213.489 317.08 210.826 313.973 210.826C310.866 210.826 308.203 213.489 308.203 216.596C308.203 219.703 310.866 222.366 313.973 222.366C317.08 222.366 319.743 219.703 319.743 216.596ZM278.908 101.637C283.791 101.637 287.342 97.6421 287.342 93.2035C287.342 88.7649 283.347 84.7702 278.908 84.7702C274.026 84.7702 270.475 88.7649 270.475 93.2035C270.475 97.6421 274.47 101.637 278.908 101.637ZM305.54 197.954C310.422 197.954 313.973 193.959 313.973 189.521C313.973 184.638 309.979 181.088 305.54 181.088C301.101 181.088 297.107 185.082 297.107 189.521C297.107 194.403 301.101 197.954 305.54 197.954ZM130.66 183.307C130.66 175.317 124.445 169.103 116.456 169.103C108.467 169.103 102.253 175.317 102.253 183.307C102.253 191.296 108.467 197.51 116.456 197.51C124.445 197.51 130.66 191.296 130.66 183.307ZM278.908 335.107C274.026 335.107 270.475 339.101 270.475 343.54C270.475 348.422 274.47 351.973 278.908 351.973C283.791 351.973 287.342 347.979 287.342 343.54C287.342 339.101 283.791 335.107 278.908 335.107ZM250.058 369.284C236.298 369.284 225.201 380.38 225.201 394.14C225.201 407.899 236.298 418.996 250.058 418.996C263.817 418.996 274.914 407.899 274.914 394.14C274.914 380.38 263.817 369.284 250.058 369.284ZM308.647 360.85C297.551 360.85 288.229 370.171 288.229 381.268C288.229 392.364 297.551 401.685 308.647 401.685C319.743 401.685 329.065 392.364 329.065 381.268C329.065 370.171 319.743 360.85 308.647 360.85ZM246.507 351.973C246.507 355.08 249.17 357.743 252.277 357.743C255.384 357.743 258.047 355.08 258.047 351.973C258.047 348.866 255.384 346.203 252.277 346.203C249.17 346.647 246.507 348.866 246.507 351.973ZM384.103 281.844C380.996 281.844 378.333 284.507 378.333 287.614C378.333 290.721 380.996 293.384 384.103 293.384C387.21 293.384 389.873 290.721 389.873 287.614C389.873 284.507 386.766 281.844 384.103 281.844ZM375.226 306.256C370.343 306.256 366.793 310.251 366.793 314.689C366.793 319.572 370.787 323.122 375.226 323.122C380.108 323.122 383.659 319.128 383.659 314.689C383.659 309.807 380.108 306.256 375.226 306.256ZM240.737 143.36C251.833 143.36 261.154 134.039 261.154 122.942C261.154 111.846 251.833 102.525 240.737 102.525C229.64 102.525 220.319 111.846 220.319 122.942C220.319 134.039 229.64 143.36 240.737 143.36ZM345.931 258.319C334.835 258.319 325.514 267.64 325.514 278.737C325.514 289.833 334.835 299.154 345.931 299.154C357.028 299.154 366.349 289.833 366.349 278.737C365.905 267.64 357.028 258.319 345.931 258.319ZM84.942 323.566C73.8456 323.566 64.5245 332.887 64.5245 343.984C64.5245 355.08 73.8456 364.401 84.942 364.401C96.0385 364.401 105.36 355.08 105.36 343.984C105.36 332.887 96.4824 323.566 84.942 323.566ZM351.257 335.55C343.268 335.55 337.054 341.765 337.054 349.754C337.054 357.743 343.268 363.957 351.257 363.957C359.247 363.957 365.461 357.743 365.461 349.754C365.461 341.765 359.247 335.55 351.257 335.55ZM125.333 306.256C120.451 306.256 116.9 310.251 116.9 314.689C116.9 319.572 120.895 323.122 125.333 323.122C129.772 323.122 133.767 319.128 133.767 314.689C133.767 309.807 129.772 306.256 125.333 306.256ZM147.97 335.55C139.981 335.55 133.767 341.765 133.767 349.754C133.767 357.743 139.981 363.957 147.97 363.957C155.959 363.957 162.174 357.743 162.174 349.754C162.174 341.765 155.959 335.55 147.97 335.55ZM151.965 402.573C147.082 402.573 143.531 406.568 143.531 411.007C143.531 415.445 147.526 419.44 151.965 419.44C156.847 419.44 160.398 415.445 160.398 411.007C160.398 406.568 156.403 402.573 151.965 402.573ZM116.456 372.391C108.467 372.391 102.253 378.605 102.253 386.594C102.253 394.584 108.467 400.798 116.456 400.798C124.445 400.798 130.66 394.584 130.66 386.594C130.66 378.605 124.445 372.391 116.456 372.391ZM173.27 152.237C173.27 155.344 175.933 158.007 179.04 158.007C182.147 158.007 184.81 155.344 184.81 152.237C184.81 149.13 182.147 146.467 179.04 146.467C175.489 146.467 173.27 149.13 173.27 152.237ZM205.672 109.626C205.672 95.8666 194.575 84.7702 180.816 84.7702C167.056 84.7702 155.959 95.8666 155.959 109.626C155.959 123.386 167.056 134.482 180.816 134.482C194.575 134.926 205.672 123.83 205.672 109.626ZM178.596 413.67C175.489 413.67 172.826 416.333 172.826 419.44C172.826 422.547 175.489 425.21 178.596 425.21C181.703 425.21 184.366 422.547 184.366 419.44C184.366 416.333 181.703 413.67 178.596 413.67ZM190.137 360.85C179.04 360.85 169.719 370.171 169.719 381.268C169.719 392.364 179.04 401.685 190.137 401.685C201.233 401.685 210.554 392.364 210.554 381.268C210.554 370.171 201.233 360.85 190.137 360.85Z" fill="white"/>
<path d="M571.32 102.489L640.34 287.059H598.204L584.245 245.957H515.225L500.749 287.059H459.647L529.701 102.489H571.32ZM549.864 147.985L525.824 215.712H573.646L550.381 147.985H549.864ZM690.23 102.489V287.059H653.523V102.489H690.23ZM756.924 102.489V287.059H720.217V102.489H756.924ZM809.658 153.413L839.903 244.923H840.42L869.63 153.413H907.63L851.794 303.861C847.83 314.374 842.358 322.043 835.379 326.868C828.399 331.693 818.706 334.106 806.297 334.106C800.955 334.106 793.286 333.675 783.291 332.813V302.569C789.839 303.43 796.303 303.861 802.678 303.861C807.848 303.861 811.855 302.267 814.699 299.079C817.542 295.891 818.964 291.884 818.964 287.059C818.964 284.301 818.447 281.544 817.413 278.786L770.366 153.413L809.658 153.413ZM977.684 102.489C994.745 102.489 1009.14 107.314 1020.85 116.965C1032.57 126.616 1038.43 138.507 1038.43 152.638C1038.43 161.599 1036.28 169.398 1031.97 176.032C1027.66 182.667 1021.37 187.191 1013.1 189.604V190.121C1023.27 192.361 1031.15 197.229 1036.75 204.726C1042.35 212.223 1045.15 221.054 1045.15 231.222C1045.15 248.8 1038.78 263.103 1026.02 274.134C1013.27 285.164 997.245 290.678 977.942 290.678C957.262 290.678 940.891 284.861 928.827 273.229C916.763 261.596 910.732 246.13 910.732 226.828V224.76H945.63C946.147 236.134 949.205 244.923 954.806 251.127C960.407 257.331 967.947 260.433 977.425 260.433C986.042 260.433 993.107 257.805 998.622 252.549C1004.14 247.293 1006.89 240.442 1006.89 231.998C1006.89 221.485 1003.71 214.377 997.33 210.672C990.953 206.966 982.078 205.114 970.704 205.114H965.017V179.264H971.738C982.078 179.264 989.963 177.325 995.391 173.447C1000.82 169.57 1003.53 164.012 1003.53 156.774C1003.53 149.019 1000.99 143.073 995.908 138.937C990.824 134.801 984.835 132.733 977.942 132.733C969.153 132.733 962.303 135.577 957.391 141.264C952.48 146.951 950.024 154.878 950.024 165.046H915.126C915.816 145.917 921.805 130.709 933.092 119.421C944.38 108.132 959.245 102.489 977.684 102.489ZM1126.32 102.489C1142.35 102.489 1155.62 106.883 1166.13 115.672C1176.64 124.461 1182.93 136.783 1185 152.638H1150.1C1148.73 145.745 1145.8 140.273 1141.32 136.223C1136.83 132.173 1131.66 130.148 1125.81 130.148C1115.81 130.148 1107.71 135.146 1101.51 145.141C1095.3 155.137 1091.86 168.493 1091.17 185.209L1091.68 185.726C1100.99 172.284 1114.52 165.563 1132.27 165.563C1147.78 165.563 1160.96 170.992 1171.82 181.849C1182.68 192.706 1188.1 206.923 1188.1 224.501C1188.1 243.285 1182.24 259.011 1170.53 271.678C1158.81 284.344 1143.56 290.678 1124.77 290.678C1102.37 290.678 1085.18 282.707 1073.2 266.766C1061.22 250.825 1055.23 227.603 1055.23 197.1C1055.23 170.216 1061.35 147.726 1073.59 129.631C1085.82 111.536 1103.4 102.489 1126.32 102.489ZM1094.53 226.828C1094.53 236.134 1097.2 244.062 1102.54 250.61C1107.88 257.158 1114.95 260.433 1123.74 260.433C1131.84 260.433 1138.47 257.159 1143.64 250.61C1148.81 244.061 1151.4 236.306 1151.4 227.345C1151.4 217.349 1148.85 209.163 1143.77 202.787C1138.69 196.411 1131.92 193.223 1123.48 193.223C1114.69 193.223 1107.67 196.325 1102.41 202.529C1097.15 208.733 1094.53 216.833 1094.53 226.828ZM1265.14 102.489C1286.85 102.489 1303.4 110.33 1314.77 126.012C1326.14 141.695 1331.83 164.961 1331.83 195.808C1331.83 227.172 1326.19 250.824 1314.9 266.766C1303.61 282.708 1287.02 290.678 1265.14 290.678C1221.02 290.678 1198.96 259.055 1198.96 195.808C1198.96 165.131 1204.52 141.91 1215.63 126.142C1226.75 110.373 1243.25 102.489 1265.14 102.489ZM1235.67 194.774C1235.67 219.245 1238.21 236.307 1243.29 245.957C1248.38 255.607 1255.66 260.433 1265.14 260.433C1272.72 260.433 1278.62 257.848 1282.84 252.678C1287.07 247.508 1290.17 240.744 1292.15 232.386C1294.13 224.027 1295.12 211.49 1295.12 194.774C1295.12 172.371 1292.49 156.43 1287.24 146.951C1281.98 137.472 1274.53 132.733 1264.88 132.733C1255.4 132.733 1248.16 137.559 1243.16 147.209C1238.17 156.86 1235.67 172.714 1235.67 194.774Z" fill="white"/>
<path d="M476.194 385.675V381.648H491.48V400.281H488.423L487.307 395.768C484.929 399.068 480.562 401.203 475.806 401.203C469.838 401.203 466.926 399.02 465.131 397.273C459.793 392.226 459.647 386.258 459.647 382.57C459.647 374.078 464.791 364.519 476.146 364.519C482.648 364.519 489.878 368.206 490.897 376.019H486.336C484.832 369.953 479.737 368.692 475.903 368.692C469.644 368.692 464.5 373.69 464.5 382.812C464.5 389.897 466.829 397.176 476.097 397.176C477.844 397.176 480.659 396.982 483.23 394.944C486.288 392.517 487.064 389.412 487.064 385.675H476.194ZM533.046 396.108V400.281H507.328V365.441H532.706V369.614H512.035V380.289H531.105V384.462H512.035V396.108H533.046ZM572.72 375.631H568.304C568.061 370.244 563.597 368.546 559.667 368.546C556.707 368.546 551.709 369.371 551.709 374.66C551.709 377.62 553.795 378.591 555.833 379.076L565.781 381.357C570.293 382.424 573.69 385.142 573.69 390.673C573.69 398.923 566.023 401.203 560.055 401.203C553.601 401.203 551.078 399.262 549.525 397.855C546.565 395.186 545.983 392.275 545.983 389.024H550.398C550.398 395.332 555.542 397.176 560.006 397.176C563.403 397.176 569.129 396.302 569.129 391.304C569.129 387.665 567.431 386.5 561.705 385.142L554.571 383.492C552.291 382.958 547.147 381.357 547.147 375.291C547.147 369.856 550.69 364.519 559.133 364.519C571.313 364.519 572.526 371.797 572.72 375.631ZM584.734 369.614V365.441H613.024V369.614H601.233V400.281H596.526V369.614H584.734ZM652.795 382.861C652.795 374.66 648.234 368.692 640.664 368.692C633.094 368.692 628.533 374.66 628.533 382.861C628.533 391.062 633.094 397.03 640.664 397.03C648.234 397.03 652.795 391.062 652.795 382.861ZM657.648 382.861C657.648 390.382 653.669 401.203 640.664 401.203C627.659 401.203 623.68 390.382 623.68 382.861C623.68 375.34 627.659 364.519 640.664 364.519C653.669 364.519 657.648 375.34 657.648 382.861ZM676.601 385.336V400.281H671.895V365.441H688.005C693.731 365.441 699.457 367.43 699.457 374.806C699.457 379.949 696.836 381.842 694.604 383.152C696.594 383.977 698.583 384.85 698.777 389.703L699.068 396.011C699.117 397.952 699.359 398.68 700.815 399.505V400.281H695.041C694.361 398.146 694.216 392.857 694.216 391.547C694.216 388.684 693.634 385.336 688.005 385.336H676.601ZM676.601 369.468V381.308H687.519C690.965 381.308 694.604 380.435 694.604 375.291C694.604 369.905 690.674 369.468 688.344 369.468H676.601ZM762.209 396.108V400.281H736.491V365.441H761.869V369.614H741.197V380.289H760.268V384.462H741.197V396.108H762.209ZM809.695 400.281H805.134V379.707C805.134 378.688 805.231 374.272 805.231 371.021H805.134L795.332 400.281H790.673L780.871 371.069H780.774C780.774 374.272 780.871 378.688 780.871 379.707V400.281H776.31V365.441H783.055L793.002 394.895H793.099L802.999 365.441H809.695V400.281ZM830.153 369.468V381.551H839.518C843.74 381.551 846.603 379.998 846.603 375.291C846.603 370.875 843.594 369.468 839.712 369.468H830.153ZM830.153 385.578V400.281H825.446V365.441H841.12C847.573 365.441 851.455 369.614 851.455 375.243C851.455 380.095 848.689 385.578 841.12 385.578H830.153ZM870.7 385.336V400.281H865.993V365.441H882.103C887.829 365.441 893.555 367.43 893.555 374.806C893.555 379.949 890.935 381.842 888.703 383.152C890.692 383.977 892.682 384.85 892.876 389.703L893.167 396.011C893.216 397.952 893.458 398.68 894.914 399.505V400.281H889.14C888.46 398.146 888.315 392.857 888.315 391.547C888.315 388.684 887.732 385.336 882.103 385.336H870.7ZM870.7 369.468V381.308H881.618C885.063 381.308 888.703 380.435 888.703 375.291C888.703 369.905 884.772 369.468 882.443 369.468H870.7ZM934.733 396.108V400.281H909.015V365.441H934.394V369.614H913.722V380.289H932.792V384.462H913.722V396.108H934.733ZM974.407 375.631H969.991C969.749 370.244 965.285 368.546 961.354 368.546C958.394 368.546 953.396 369.371 953.396 374.66C953.396 377.62 955.483 378.591 957.521 379.076L967.468 381.357C971.981 382.424 975.378 385.142 975.378 390.673C975.378 398.923 967.711 401.203 961.742 401.203C955.288 401.203 952.765 399.262 951.212 397.855C948.252 395.186 947.67 392.275 947.67 389.024H952.086C952.086 395.332 957.229 397.176 961.694 397.176C965.09 397.176 970.816 396.302 970.816 391.304C970.816 387.665 969.118 386.5 963.392 385.142L956.259 383.492C953.978 382.958 948.835 381.357 948.835 375.291C948.835 369.856 952.377 364.519 960.82 364.519C973 364.519 974.213 371.797 974.407 375.631ZM1008.89 390.14H994.914L991.274 400.281H986.422L999.524 365.441H1004.86L1017.48 400.281H1012.33L1008.89 390.14ZM996.369 385.966H1007.19L1002.05 370.633H1001.95L996.369 385.966ZM1035.17 385.336V400.281H1030.46V365.441H1046.57C1052.3 365.441 1058.02 367.43 1058.02 374.806C1058.02 379.949 1055.4 381.842 1053.17 383.152C1055.16 383.977 1057.15 384.85 1057.35 389.703L1057.64 396.011C1057.69 397.952 1057.93 398.68 1059.38 399.505V400.281H1053.61C1052.93 398.146 1052.78 392.857 1052.78 391.547C1052.78 388.684 1052.2 385.336 1046.57 385.336H1035.17ZM1035.17 369.468V381.308H1046.09C1049.53 381.308 1053.17 380.435 1053.17 375.291C1053.17 369.905 1049.24 369.468 1046.91 369.468H1035.17ZM1078.43 365.441V400.281H1073.73V365.441H1078.43ZM1114.03 390.14H1100.06L1096.42 400.281H1091.57L1104.67 365.441H1110L1122.62 400.281H1117.48L1114.03 390.14ZM1101.51 385.966H1112.33L1107.19 370.633H1107.09L1101.51 385.966ZM1139.73 365.441V396.108H1157.39V400.281H1135.02V365.441H1139.73Z" fill="white"/>
</svg>
