<svg width="1516" height="589" viewBox="0 0 1516 589" fill="none" xmlns="http://www.w3.org/2000/svg">
<g clip-path="url(#clip0_914_220)">
<g clip-path="url(#clip1_914_220)">
<rect width="1516" height="589" rx="25" fill="#078DEE"/>
<path d="M194.226 186.36C205.323 186.36 214.644 177.039 214.644 165.942C214.644 154.846 205.323 145.525 194.226 145.525C183.13 145.525 173.809 154.846 173.809 165.942C173.809 177.039 183.13 186.36 194.226 186.36ZM183.13 330.614C183.13 333.721 185.793 336.384 188.9 336.384C192.007 336.384 194.67 333.721 194.67 330.614C194.67 327.507 192.007 324.844 188.9 324.844C185.793 324.844 183.13 327.507 183.13 330.614ZM223.965 212.103C228.847 212.103 232.398 208.109 232.398 203.67C232.398 198.788 228.403 195.237 223.965 195.237C219.082 195.237 215.531 199.231 215.531 203.67C215.531 208.109 219.082 212.103 223.965 212.103ZM156.942 288.891C168.039 288.891 177.36 279.57 177.36 268.473C177.36 257.377 168.039 248.056 156.942 248.056C145.846 248.056 136.525 257.377 136.525 268.473C136.968 279.57 145.846 288.891 156.942 288.891ZM127.647 240.954C132.53 240.954 136.081 236.959 136.081 232.521C136.081 227.638 132.086 224.088 127.647 224.088C122.765 224.088 119.214 228.082 119.214 232.521C119.214 237.403 122.765 240.954 127.647 240.954ZM124.54 259.596C124.54 256.489 121.877 253.826 118.77 253.826C115.663 253.826 113 256.489 113 259.596C113 262.703 115.663 265.366 118.77 265.366C121.877 265.366 124.54 262.703 124.54 259.596ZM151.616 211.66C159.605 211.66 165.819 205.445 165.819 197.456C165.819 189.467 159.605 183.253 151.616 183.253C143.626 183.253 137.412 189.467 137.412 197.456C137.412 205.445 143.626 211.66 151.616 211.66ZM324.277 133.54C327.384 133.54 330.047 130.877 330.047 127.77C330.047 124.663 327.384 122 324.277 122C321.17 122 318.507 124.663 318.507 127.77C318.507 130.877 321.17 133.54 324.277 133.54ZM168.926 328.394C168.926 314.635 157.83 303.538 144.07 303.538C130.311 303.538 119.214 314.635 119.214 328.394C119.214 342.154 130.311 353.251 144.07 353.251C157.83 353.251 168.926 342.154 168.926 328.394ZM417.931 223.644C429.028 223.644 438.349 214.323 438.349 203.226C438.349 192.13 429.028 182.809 417.931 182.809C406.835 182.809 397.514 192.13 397.514 203.226C397.514 214.323 406.391 223.644 417.931 223.644ZM372.214 363.903C372.214 371.893 378.428 378.107 386.417 378.107C394.407 378.107 400.621 371.893 400.621 363.903C400.621 355.914 394.407 349.7 386.417 349.7C378.428 349.7 372.214 355.914 372.214 363.903ZM386.417 174.819C394.407 174.819 400.621 168.605 400.621 160.616C400.621 152.626 394.407 146.412 386.417 146.412C378.428 146.412 372.214 152.626 372.214 160.616C372.214 168.605 378.428 174.819 386.417 174.819ZM354.903 211.66C362.893 211.66 369.107 205.445 369.107 197.456C369.107 189.467 362.893 183.253 354.903 183.253C346.914 183.253 340.7 189.467 340.7 197.456C340.7 205.445 346.914 211.66 354.903 211.66ZM405.947 261.816C405.947 275.575 417.043 286.672 430.803 286.672C444.563 286.672 455.659 275.575 455.659 261.816C455.659 248.056 444.563 236.959 430.803 236.959C417.043 236.959 405.947 248.056 405.947 261.816ZM391.743 259.596C391.743 256.489 389.08 253.826 385.973 253.826C382.866 253.826 380.203 256.489 380.203 259.596C380.203 262.703 382.866 265.366 385.973 265.366C389.08 265.366 391.743 262.703 391.743 259.596ZM350.908 144.637C355.791 144.637 359.342 140.642 359.342 136.203C359.342 131.765 355.347 127.77 350.908 127.77C346.026 127.77 342.475 131.765 342.475 136.203C342.475 140.642 346.47 144.637 350.908 144.637ZM377.54 240.954C382.422 240.954 385.973 236.959 385.973 232.521C385.973 227.638 381.979 224.088 377.54 224.088C373.101 224.088 369.107 228.082 369.107 232.521C369.107 237.403 373.101 240.954 377.54 240.954ZM202.66 226.307C202.66 218.317 196.445 212.103 188.456 212.103C180.467 212.103 174.253 218.317 174.253 226.307C174.253 234.296 180.467 240.51 188.456 240.51C196.445 240.51 202.66 234.296 202.66 226.307ZM350.908 378.107C346.026 378.107 342.475 382.101 342.475 386.54C342.475 391.422 346.47 394.973 350.908 394.973C355.791 394.973 359.342 390.979 359.342 386.54C359.342 382.101 355.791 378.107 350.908 378.107ZM322.058 412.284C308.298 412.284 297.201 423.38 297.201 437.14C297.201 450.899 308.298 461.996 322.058 461.996C335.817 461.996 346.914 450.899 346.914 437.14C346.914 423.38 335.817 412.284 322.058 412.284ZM380.647 403.85C369.551 403.85 360.229 413.171 360.229 424.268C360.229 435.364 369.551 444.685 380.647 444.685C391.743 444.685 401.065 435.364 401.065 424.268C401.065 413.171 391.743 403.85 380.647 403.85ZM318.507 394.973C318.507 398.08 321.17 400.743 324.277 400.743C327.384 400.743 330.047 398.08 330.047 394.973C330.047 391.866 327.384 389.203 324.277 389.203C321.17 389.647 318.507 391.866 318.507 394.973ZM456.103 324.844C452.996 324.844 450.333 327.507 450.333 330.614C450.333 333.721 452.996 336.384 456.103 336.384C459.21 336.384 461.873 333.721 461.873 330.614C461.873 327.507 458.766 324.844 456.103 324.844ZM447.226 349.256C442.343 349.256 438.793 353.251 438.793 357.689C438.793 362.572 442.787 366.122 447.226 366.122C452.108 366.122 455.659 362.128 455.659 357.689C455.659 352.807 452.108 349.256 447.226 349.256ZM312.737 186.36C323.833 186.36 333.154 177.039 333.154 165.942C333.154 154.846 323.833 145.525 312.737 145.525C301.64 145.525 292.319 154.846 292.319 165.942C292.319 177.039 301.64 186.36 312.737 186.36ZM417.931 301.319C406.835 301.319 397.514 310.64 397.514 321.737C397.514 332.833 406.835 342.154 417.931 342.154C429.028 342.154 438.349 332.833 438.349 321.737C437.905 310.64 429.028 301.319 417.931 301.319ZM156.942 366.566C145.846 366.566 136.525 375.887 136.525 386.984C136.525 398.08 145.846 407.401 156.942 407.401C168.039 407.401 177.36 398.08 177.36 386.984C177.36 375.887 168.482 366.566 156.942 366.566ZM423.257 378.55C415.268 378.55 409.054 384.765 409.054 392.754C409.054 400.743 415.268 406.957 423.257 406.957C431.247 406.957 437.461 400.743 437.461 392.754C437.461 384.765 431.247 378.55 423.257 378.55ZM197.333 349.256C192.451 349.256 188.9 353.251 188.9 357.689C188.9 362.572 192.895 366.122 197.333 366.122C201.772 366.122 205.767 362.128 205.767 357.689C205.767 352.807 201.772 349.256 197.333 349.256ZM219.97 378.55C211.981 378.55 205.767 384.765 205.767 392.754C205.767 400.743 211.981 406.957 219.97 406.957C227.959 406.957 234.174 400.743 234.174 392.754C234.174 384.765 227.959 378.55 219.97 378.55ZM223.965 445.573C219.082 445.573 215.531 449.568 215.531 454.007C215.531 458.445 219.526 462.44 223.965 462.44C228.847 462.44 232.398 458.445 232.398 454.007C232.398 449.568 228.403 445.573 223.965 445.573ZM188.456 415.391C180.467 415.391 174.253 421.605 174.253 429.594C174.253 437.584 180.467 443.798 188.456 443.798C196.445 443.798 202.66 437.584 202.66 429.594C202.66 421.605 196.445 415.391 188.456 415.391ZM245.27 195.237C245.27 198.344 247.933 201.007 251.04 201.007C254.147 201.007 256.81 198.344 256.81 195.237C256.81 192.13 254.147 189.467 251.04 189.467C247.489 189.467 245.27 192.13 245.27 195.237ZM277.672 152.626C277.672 138.867 266.575 127.77 252.816 127.77C239.056 127.77 227.959 138.867 227.959 152.626C227.959 166.386 239.056 177.482 252.816 177.482C266.575 177.926 277.672 166.83 277.672 152.626ZM250.596 456.67C247.489 456.67 244.826 459.333 244.826 462.44C244.826 465.547 247.489 468.21 250.596 468.21C253.703 468.21 256.366 465.547 256.366 462.44C256.366 459.333 253.703 456.67 250.596 456.67ZM262.137 403.85C251.04 403.85 241.719 413.171 241.719 424.268C241.719 435.364 251.04 444.685 262.137 444.685C273.233 444.685 282.554 435.364 282.554 424.268C282.554 413.171 273.233 403.85 262.137 403.85Z" fill="white"/>
<path d="M643.32 145.489L712.34 330.059H670.204L656.245 288.957H587.225L572.749 330.059H531.647L601.701 145.489H643.32ZM621.864 190.985L597.824 258.712H645.646L622.381 190.985H621.864ZM762.23 145.489V330.059H725.523V145.489H762.23ZM828.924 145.489V330.059H792.217V145.489H828.924ZM881.658 196.413L911.903 287.923H912.42L941.63 196.413H979.63L923.794 346.861C919.83 357.374 914.358 365.043 907.379 369.868C900.399 374.693 890.706 377.106 878.297 377.106C872.955 377.106 865.286 376.675 855.291 375.813V345.569C861.839 346.43 868.303 346.861 874.678 346.861C879.848 346.861 883.855 345.267 886.699 342.079C889.542 338.891 890.964 334.884 890.964 330.059C890.964 327.301 890.447 324.544 889.413 321.786L842.366 196.413L881.658 196.413ZM1049.68 145.489C1066.74 145.489 1081.14 150.314 1092.85 159.965C1104.57 169.616 1110.43 181.507 1110.43 195.638C1110.43 204.599 1108.28 212.398 1103.97 219.032C1099.66 225.667 1093.37 230.191 1085.1 232.604V233.121C1095.27 235.361 1103.15 240.229 1108.75 247.726C1114.35 255.223 1117.15 264.054 1117.15 274.222C1117.15 291.8 1110.78 306.103 1098.02 317.134C1085.27 328.164 1069.24 333.678 1049.94 333.678C1029.26 333.678 1012.89 327.861 1000.83 316.229C988.763 304.596 982.732 289.13 982.732 269.828V267.76H1017.63C1018.15 279.134 1021.21 287.923 1026.81 294.127C1032.41 300.331 1039.95 303.433 1049.43 303.433C1058.04 303.433 1065.11 300.805 1070.62 295.549C1076.14 290.293 1078.89 283.442 1078.89 274.998C1078.89 264.485 1075.71 257.377 1069.33 253.672C1062.95 249.966 1054.08 248.114 1042.7 248.114H1037.02V222.264H1043.74C1054.08 222.264 1061.96 220.325 1067.39 216.447C1072.82 212.57 1075.53 207.012 1075.53 199.774C1075.53 192.019 1072.99 186.073 1067.91 181.937C1062.82 177.801 1056.84 175.733 1049.94 175.733C1041.15 175.733 1034.3 178.577 1029.39 184.264C1024.48 189.951 1022.02 197.878 1022.02 208.046H987.126C987.816 188.917 993.805 173.709 1005.09 162.421C1016.38 151.132 1031.24 145.489 1049.68 145.489ZM1198.32 145.489C1214.35 145.489 1227.62 149.883 1238.13 158.672C1248.64 167.461 1254.93 179.783 1257 195.638H1222.1C1220.73 188.745 1217.8 183.273 1213.32 179.223C1208.83 175.173 1203.66 173.148 1197.81 173.148C1187.81 173.148 1179.71 178.146 1173.51 188.141C1167.3 198.137 1163.86 211.493 1163.17 228.209L1163.68 228.726C1172.99 215.284 1186.52 208.563 1204.27 208.563C1219.78 208.563 1232.96 213.992 1243.82 224.849C1254.68 235.706 1260.1 249.923 1260.1 267.501C1260.1 286.285 1254.24 302.011 1242.53 314.678C1230.81 327.344 1215.56 333.678 1196.77 333.678C1174.37 333.678 1157.18 325.707 1145.2 309.766C1133.22 293.825 1127.23 270.603 1127.23 240.1C1127.23 213.216 1133.35 190.726 1145.59 172.631C1157.82 154.536 1175.4 145.489 1198.32 145.489ZM1166.53 269.828C1166.53 279.134 1169.2 287.062 1174.54 293.61C1179.88 300.158 1186.95 303.433 1195.74 303.433C1203.84 303.433 1210.47 300.159 1215.64 293.61C1220.81 287.061 1223.4 279.306 1223.4 270.345C1223.4 260.349 1220.85 252.163 1215.77 245.787C1210.69 239.411 1203.92 236.223 1195.48 236.223C1186.69 236.223 1179.67 239.325 1174.41 245.529C1169.15 251.733 1166.53 259.833 1166.53 269.828ZM1337.14 145.489C1358.85 145.489 1375.4 153.33 1386.77 169.012C1398.14 184.695 1403.83 207.961 1403.83 238.808C1403.83 270.172 1398.19 293.824 1386.9 309.766C1375.61 325.708 1359.02 333.678 1337.14 333.678C1293.02 333.678 1270.96 302.055 1270.96 238.808C1270.96 208.131 1276.52 184.91 1287.63 169.142C1298.75 153.373 1315.25 145.489 1337.14 145.489ZM1307.67 237.774C1307.67 262.245 1310.21 279.307 1315.29 288.957C1320.38 298.607 1327.66 303.433 1337.14 303.433C1344.72 303.433 1350.62 300.848 1354.84 295.678C1359.07 290.508 1362.17 283.744 1364.15 275.386C1366.13 267.027 1367.12 254.49 1367.12 237.774C1367.12 215.371 1364.49 199.43 1359.24 189.951C1353.98 180.472 1346.53 175.733 1336.88 175.733C1327.4 175.733 1320.16 180.559 1315.16 190.209C1310.17 199.86 1307.67 215.714 1307.67 237.774Z" fill="white"/>
<path d="M548.194 428.675V424.648H563.48V443.281H560.423L559.307 438.768C556.929 442.068 552.562 444.203 547.806 444.203C541.838 444.203 538.926 442.02 537.131 440.273C531.793 435.226 531.647 429.258 531.647 425.57C531.647 417.078 536.791 407.519 548.146 407.519C554.648 407.519 561.878 411.206 562.897 419.019H558.336C556.832 412.953 551.737 411.692 547.903 411.692C541.644 411.692 536.5 416.69 536.5 425.812C536.5 432.897 538.829 440.176 548.097 440.176C549.844 440.176 552.659 439.982 555.23 437.944C558.288 435.517 559.064 432.412 559.064 428.675H548.194ZM605.046 439.108V443.281H579.328V408.441H604.706V412.614H584.035V423.289H603.105V427.462H584.035V439.108H605.046ZM644.72 418.631H640.304C640.061 413.244 635.597 411.546 631.667 411.546C628.707 411.546 623.709 412.371 623.709 417.66C623.709 420.62 625.795 421.591 627.833 422.076L637.781 424.357C642.293 425.424 645.69 428.142 645.69 433.673C645.69 441.923 638.023 444.203 632.055 444.203C625.601 444.203 623.078 442.262 621.525 440.855C618.565 438.186 617.983 435.275 617.983 432.024H622.398C622.398 438.332 627.542 440.176 632.006 440.176C635.403 440.176 641.129 439.302 641.129 434.304C641.129 430.665 639.431 429.5 633.705 428.142L626.571 426.492C624.291 425.958 619.147 424.357 619.147 418.291C619.147 412.856 622.69 407.519 631.133 407.519C643.313 407.519 644.526 414.797 644.72 418.631ZM656.734 412.614V408.441H685.024V412.614H673.233V443.281H668.526V412.614H656.734ZM724.795 425.861C724.795 417.66 720.234 411.692 712.664 411.692C705.094 411.692 700.533 417.66 700.533 425.861C700.533 434.062 705.094 440.03 712.664 440.03C720.234 440.03 724.795 434.062 724.795 425.861ZM729.648 425.861C729.648 433.382 725.669 444.203 712.664 444.203C699.659 444.203 695.68 433.382 695.68 425.861C695.68 418.34 699.659 407.519 712.664 407.519C725.669 407.519 729.648 418.34 729.648 425.861ZM748.601 428.336V443.281H743.895V408.441H760.005C765.731 408.441 771.457 410.43 771.457 417.806C771.457 422.949 768.836 424.842 766.604 426.152C768.594 426.977 770.583 427.85 770.777 432.703L771.068 439.011C771.117 440.952 771.359 441.68 772.815 442.505V443.281H767.041C766.361 441.146 766.216 435.857 766.216 434.547C766.216 431.684 765.634 428.336 760.005 428.336H748.601ZM748.601 412.468V424.308H759.519C762.965 424.308 766.604 423.435 766.604 418.291C766.604 412.905 762.674 412.468 760.344 412.468H748.601ZM834.209 439.108V443.281H808.491V408.441H833.869V412.614H813.197V423.289H832.268V427.462H813.197V439.108H834.209ZM881.695 443.281H877.134V422.707C877.134 421.688 877.231 417.272 877.231 414.021H877.134L867.332 443.281H862.673L852.871 414.069H852.774C852.774 417.272 852.871 421.688 852.871 422.707V443.281H848.31V408.441H855.055L865.002 437.895H865.099L874.999 408.441H881.695V443.281ZM902.153 412.468V424.551H911.518C915.74 424.551 918.603 422.998 918.603 418.291C918.603 413.875 915.594 412.468 911.712 412.468H902.153ZM902.153 428.578V443.281H897.446V408.441H913.12C919.573 408.441 923.455 412.614 923.455 418.243C923.455 423.095 920.689 428.578 913.12 428.578H902.153ZM942.7 428.336V443.281H937.993V408.441H954.103C959.829 408.441 965.555 410.43 965.555 417.806C965.555 422.949 962.935 424.842 960.703 426.152C962.692 426.977 964.682 427.85 964.876 432.703L965.167 439.011C965.216 440.952 965.458 441.68 966.914 442.505V443.281H961.14C960.46 441.146 960.315 435.857 960.315 434.547C960.315 431.684 959.732 428.336 954.103 428.336H942.7ZM942.7 412.468V424.308H953.618C957.063 424.308 960.703 423.435 960.703 418.291C960.703 412.905 956.772 412.468 954.443 412.468H942.7ZM1006.73 439.108V443.281H981.015V408.441H1006.39V412.614H985.722V423.289H1004.79V427.462H985.722V439.108H1006.73ZM1046.41 418.631H1041.99C1041.75 413.244 1037.28 411.546 1033.35 411.546C1030.39 411.546 1025.4 412.371 1025.4 417.66C1025.4 420.62 1027.48 421.591 1029.52 422.076L1039.47 424.357C1043.98 425.424 1047.38 428.142 1047.38 433.673C1047.38 441.923 1039.71 444.203 1033.74 444.203C1027.29 444.203 1024.77 442.262 1023.21 440.855C1020.25 438.186 1019.67 435.275 1019.67 432.024H1024.09C1024.09 438.332 1029.23 440.176 1033.69 440.176C1037.09 440.176 1042.82 439.302 1042.82 434.304C1042.82 430.665 1041.12 429.5 1035.39 428.142L1028.26 426.492C1025.98 425.958 1020.83 424.357 1020.83 418.291C1020.83 412.856 1024.38 407.519 1032.82 407.519C1045 407.519 1046.21 414.797 1046.41 418.631ZM1080.89 433.14H1066.91L1063.27 443.281H1058.42L1071.52 408.441H1076.86L1089.48 443.281H1084.33L1080.89 433.14ZM1068.37 428.966H1079.19L1074.05 413.633H1073.95L1068.37 428.966ZM1107.17 428.336V443.281H1102.46V408.441H1118.57C1124.3 408.441 1130.02 410.43 1130.02 417.806C1130.02 422.949 1127.4 424.842 1125.17 426.152C1127.16 426.977 1129.15 427.85 1129.35 432.703L1129.64 439.011C1129.69 440.952 1129.93 441.68 1131.38 442.505V443.281H1125.61C1124.93 441.146 1124.78 435.857 1124.78 434.547C1124.78 431.684 1124.2 428.336 1118.57 428.336H1107.17ZM1107.17 412.468V424.308H1118.09C1121.53 424.308 1125.17 423.435 1125.17 418.291C1125.17 412.905 1121.24 412.468 1118.91 412.468H1107.17ZM1150.43 408.441V443.281H1145.73V408.441H1150.43ZM1186.03 433.14H1172.06L1168.42 443.281H1163.57L1176.67 408.441H1182L1194.62 443.281H1189.48L1186.03 433.14ZM1173.51 428.966H1184.33L1179.19 413.633H1179.09L1173.51 428.966ZM1211.73 408.441V439.108H1229.39V443.281H1207.02V408.441H1211.73Z" fill="white"/>
</g>
</g>
<defs>
<clipPath id="clip0_914_220">
<rect width="1516" height="589" fill="white"/>
</clipPath>
<clipPath id="clip1_914_220">
<rect width="1516" height="589" fill="white"/>
</clipPath>
</defs>
</svg>
