<svg width="800" height="600" xmlns="http://www.w3.org/2000/svg">
  <defs>
    <linearGradient id="inventory-bg" x1="0%" y1="0%" x2="100%" y2="100%">
      <stop offset="0%" style="stop-color:#4caf50;stop-opacity:0.1"/>
      <stop offset="100%" style="stop-color:#2e7d32;stop-opacity:0.2"/>
    </linearGradient>
  </defs>
  <rect width="800" height="600" fill="url(#inventory-bg)"/>
  <rect x="50" y="50" width="700" height="500" fill="white" rx="8" stroke="#e0e0e0" stroke-width="2"/>
  
  <!-- Warehouse illustration -->
  <rect x="100" y="150" width="200" height="120" fill="#f5f5f5" stroke="#d4d4d4" rx="4"/>
  <polygon points="100,150 200,100 300,150" fill="#2e7d32" stroke="#1b5e20"/>
  
  <!-- Boxes/inventory items -->
  <rect x="120" y="180" width="30" height="30" fill="#4caf50" rx="2"/>
  <rect x="160" y="180" width="30" height="30" fill="#ff9800" rx="2"/>
  <rect x="200" y="180" width="30" height="30" fill="#f44336" rx="2"/>
  <rect x="240" y="180" width="30" height="30" fill="#2196f3" rx="2"/>
  
  <rect x="120" y="220" width="30" height="30" fill="#9c27b0" rx="2"/>
  <rect x="160" y="220" width="30" height="30" fill="#607d8b" rx="2"/>
  <rect x="200" y="220" width="30" height="30" fill="#795548" rx="2"/>
  <rect x="240" y="220" width="30" height="30" fill="#009688" rx="2"/>
  
  <!-- Error indicators -->
  <circle cx="135" cy="165" r="8" fill="#f44336"/>
  <text x="135" y="169" text-anchor="middle" font-family="Arial, sans-serif" font-size="10" fill="white" font-weight="bold">!</text>
  
  <circle cx="215" cy="165" r="8" fill="#f44336"/>
  <text x="215" y="169" text-anchor="middle" font-family="Arial, sans-serif" font-size="10" fill="white" font-weight="bold">!</text>
  
  <circle cx="175" cy="205" r="8" fill="#f44336"/>
  <text x="175" y="209" text-anchor="middle" font-family="Arial, sans-serif" font-size="10" fill="white" font-weight="bold">!</text>
  
  <!-- Chart/analytics section -->
  <rect x="400" y="120" width="280" height="200" fill="#fafafa" stroke="#e0e0e0" rx="4"/>
  
  <!-- Bar chart -->
  <rect x="420" y="280" width="20" height="30" fill="#f44336"/>
  <rect x="450" y="260" width="20" height="50" fill="#ff9800"/>
  <rect x="480" y="240" width="20" height="70" fill="#4caf50"/>
  <rect x="510" y="220" width="20" height="90" fill="#2196f3"/>
  <rect x="540" y="200" width="20" height="110" fill="#9c27b0"/>
  
  <!-- Chart labels -->
  <text x="430" y="330" text-anchor="middle" font-family="Arial, sans-serif" font-size="8" fill="#666">Error 1</text>
  <text x="460" y="330" text-anchor="middle" font-family="Arial, sans-serif" font-size="8" fill="#666">Error 2</text>
  <text x="490" y="330" text-anchor="middle" font-family="Arial, sans-serif" font-size="8" fill="#666">Error 3</text>
  <text x="520" y="330" text-anchor="middle" font-family="Arial, sans-serif" font-size="8" fill="#666">Error 4</text>
  <text x="550" y="330" text-anchor="middle" font-family="Arial, sans-serif" font-size="8" fill="#666">Error 5</text>
  
  <!-- Warning sign -->
  <polygon points="350,180 370,180 360,160" fill="#ff9800" stroke="#f57c00"/>
  <circle cx="360" cy="170" r="2" fill="white"/>
  <rect x="359" y="174" width="2" height="4" fill="white"/>
  
  <!-- Main title -->
  <text x="400" y="400" text-anchor="middle" font-family="Arial, sans-serif" font-size="24" fill="#2e7d32" font-weight="bold">Gestión de Inventario</text>
  <text x="400" y="430" text-anchor="middle" font-family="Arial, sans-serif" font-size="16" fill="#666">Evita Estos 5 Errores</text>
</svg>
